<svg xmlns="http://www.w3.org/2000/svg" viewBox="0 0 512 512" width="100%" height="100%">
  <rect width="512" height="512" rx="115" fill="#101216" />
  <rect x="16" y="16" width="480" height="480" rx="100" fill="none" stroke="rgba(255,255,255,0.08)" stroke-width="2" />

  <g transform="translate(106, 106)">
    <rect width="300" height="300" rx="6" fill="#F4F5F7" />

    <rect x="0" y="0" width="150" height="75" fill="#2456e0" />
    <rect x="0" y="75" width="75" height="150" fill="#2456e0" />
    <rect x="75" y="112" width="115" height="75" fill="#E11D48" />
    <rect x="0" y="225" width="150" height="75" fill="#2456e0" />

    <rect x="150" y="0" width="150" height="75" fill="#18181B" />
    <polygon points="300,75 225,75 110,225 185,225" fill="#18181B" />
    <rect x="150" y="225" width="150" height="75" fill="#5FCE96" />

    <rect x="0" y="0" width="300" height="300" rx="6" fill="none" stroke="#18181B" stroke-width="4" />
    <line x1="75" y1="0" x2="75" y2="300" stroke="#18181B" stroke-width="2" />
    <line x1="150" y1="0" x2="150" y2="300" stroke="#18181B" stroke-width="3" />
    <line x1="225" y1="0" x2="225" y2="300" stroke="#18181B" stroke-width="2" />
    
    <line x1="0" y1="75" x2="300" y2="75" stroke="#18181B" stroke-width="2" />
    <line x1="0" y1="150" x2="300" y2="150" stroke="#18181B" stroke-width="3" />
    <line x1="0" y1="225" x2="300" y2="225" stroke="#18181B" stroke-width="2" />
  </g>
</svg>