<svg xmlns="http://www.w3.org/2000/svg" viewBox="12 12 76 76"><defs><clipPath id="m45"><rect x="0" y="34.5" width="100" height="31"/></clipPath></defs><path d="M18 26.5 A5 5 0 0 1 23 21.5 L77 21.5 A5 5 0 0 1 82 26.5 L82 32.12 A7 7 0 0 1 80.55 36.39 L62.52 59.87 A3.5 3.5 0 0 0 65.3 65.5 L77 65.5 A5 5 0 0 1 82 70.5 L82 73.5 A5 5 0 0 1 77 78.5 L23 78.5 A5 5 0 0 1 18 73.5 L18 70.5 A5 5 0 0 1 23 65.5 L40.08 65.5 A3.5 3.5 0 0 0 42.86 64.13 L47.23 58.43 A1.2 1.2 0 0 0 46.28 56.5 L23 56.5 A5 5 0 0 1 18 51.5 L18 48.5 A5 5 0 0 1 23 43.5 L58.11 43.5 A1.2 1.2 0 0 0 59.06 43.03 L64.13 36.43 A1.2 1.2 0 0 0 63.17 34.5 L23 34.5 A5 5 0 0 1 18 29.5 Z" fill="#15181d"/><path d="M18 26.5 A5 5 0 0 1 23 21.5 L77 21.5 A5 5 0 0 1 82 26.5 L82 32.12 A7 7 0 0 1 80.55 36.39 L62.52 59.87 A3.5 3.5 0 0 0 65.3 65.5 L77 65.5 A5 5 0 0 1 82 70.5 L82 73.5 A5 5 0 0 1 77 78.5 L23 78.5 A5 5 0 0 1 18 73.5 L18 70.5 A5 5 0 0 1 23 65.5 L40.08 65.5 A3.5 3.5 0 0 0 42.86 64.13 L47.23 58.43 A1.2 1.2 0 0 0 46.28 56.5 L23 56.5 A5 5 0 0 1 18 51.5 L18 48.5 A5 5 0 0 1 23 43.5 L58.11 43.5 A1.2 1.2 0 0 0 59.06 43.03 L64.13 36.43 A1.2 1.2 0 0 0 63.17 34.5 L23 34.5 A5 5 0 0 1 18 29.5 Z" fill="#ff8fc0" clip-path="url(#m45)"/></svg>