<svg xmlns="http://www.w3.org/2000/svg" viewBox="0 0 100 100" width="100%" height="100%">
  <defs>
    <linearGradient id="t" x1="0" y1="0" x2="0" y2="1">
      <stop offset="0" stop-color="#232832"/>
      <stop offset="1" stop-color="#101216"/>
    </linearGradient>
    <radialGradient id="h" cx=".26" cy=".08" r=".9">
      <stop offset="0" stop-color="#ffa8d033"/>
      <stop offset="1" stop-color="#ffa8d033" stop-opacity="0"/>
    </radialGradient>
    <clipPath id="c">
      <rect width="100" height="100" rx="22"/>
    </clipPath>
    <linearGradient id="borderGrad" x1="0" y1="0" x2="0" y2="1">
      <stop offset="0" stop-color="rgba(255,255,255,.22)"/>
      <stop offset=".45" stop-color="rgba(255,255,255,.04)"/>
      <stop offset="1" stop-color="rgba(0,0,0,.4)"/>
    </linearGradient>
  </defs>
  <rect width="100" height="100" rx="22" fill="url(#t)"/>
  <rect width="100" height="100" rx="22" fill="url(#h)"/>
  <g clip-path="url(#c)" stroke="rgba(255,255,255,.06)" stroke-width="1">
    <path d="M0 22H100"/><path d="M0 34H100"/><path d="M0 44H100"/><path d="M0 56H100"/><path d="M0 66H100"/><path d="M0 78H100"/>
    <path d="M16 0V100"/><path d="M50 0V100"/><path d="M84 0V100"/>
  </g>
  <g>
    <!-- Barre haute arrondie (Blanc) -->
    <rect x="16" y="22" width="68" height="12" rx="6" fill="#f4f5f7" />
    <!-- Diagonale du Z (Accent) - S'arrête exactement à la moitié en bas (x=40..52) -->
    <polygon points="72,34 84,34 52,66 40,66" fill="#ffa8d0" />
    <!-- Barre centrale du E (Accent) - Capsule gauche, contact net sur la diagonale -->
    <path d="M 22 44 L 62 44 L 50 56 L 22 56 A 6 6 0 0 1 16 50 A 6 6 0 0 1 22 44 Z" fill="#ffa8d0" />
    <!-- Barre basse arrondie (Blanc) -->
    <rect x="16" y="66" width="68" height="12" rx="6" fill="#f4f5f7" />
  </g>
  <rect x=".5" y=".5" width="99" height="99" rx="21.5" fill="none" stroke="url(#borderGrad)"/>
</svg>